<svg xmlns="http://www.w3.org/2000/svg" xmlns:xlink="http://www.w3.org/1999/xlink" width="600" zoomAndPan="magnify" viewBox="0 0 450 449.999984" height="600" preserveAspectRatio="xMidYMid meet" version="1.0"><defs><clipPath id="0e3424e2df"><path d="M 11 28 L 411 28 L 411 395 L 11 395 Z M 11 28 " clip-rule="nonzero"/></clipPath><clipPath id="2a177afc3b"><path d="M 73.621094 49.824219 L 120.410156 92.695312 L 111.382812 121.761719 L 79.683594 130.039062 L 32.894531 87.132812 L 11.738281 106.535156 L 65.496094 177.578125 L 128.894531 166.519531 L 351.394531 383.757812 C 385.472656 415.238281 431.433594 368.03125 399.554688 341.148438 L 161.820312 134.96875 L 176.296875 76.175781 L 96.363281 28.933594 Z M 366.265625 354.292969 C 372.332031 348.730469 382.152344 348.730469 388.21875 354.292969 C 394.28125 359.855469 394.28125 368.859375 388.21875 374.421875 C 382.152344 379.949219 372.332031 379.949219 366.265625 374.421875 C 360.203125 368.859375 360.203125 359.855469 366.265625 354.292969 Z M 366.265625 354.292969 " clip-rule="nonzero"/></clipPath><clipPath id="d1882dcf49"><path d="M 20 24 L 436.738281 24 L 436.738281 389 L 20 389 Z M 20 24 " clip-rule="nonzero"/></clipPath><clipPath id="de98d06bfd"><path d="M 194.128906 32.609375 L 196.875 33.140625 C 228.789062 23.40625 300.417969 61.742188 284.457031 95.90625 C 280.414062 101.269531 281.101562 110.804688 285.976562 116.796875 L 196.40625 198.964844 C 191.386719 194.359375 180.230469 194.460938 175.105469 198.964844 L 26.976562 329.332031 C 13.472656 341.214844 24.085938 351.3125 29.792969 356.644531 L 56.363281 381.007812 C 62.175781 386.304688 77.519531 393.457031 88.421875 382.863281 L 228.210938 247.761719 C 233.085938 243.058594 233.121094 232.960938 228.210938 228.328125 C 228.210938 228.328125 228.246094 228.261719 228.210938 228.261719 L 318.140625 145.828125 C 327.636719 153.675781 336.605469 154.351562 345.109375 152.21875 C 361.539062 148.09375 370.699219 162.832031 380.527344 173.605469 L 376.085938 177.609375 C 369.515625 183.703125 370.128906 193.964844 377.496094 200.71875 C 384.859375 207.472656 396.085938 208.035156 402.660156 202.007812 L 432.046875 175.09375 C 438.617188 169.003906 438.003906 158.738281 430.601562 152.019531 C 423.960938 145.894531 414.320312 145.101562 407.605469 149.46875 C 387.460938 128.746094 398.039062 125.636719 371.464844 98.652344 L 321.679688 52.007812 C 285.832031 19.765625 239.257812 19.796875 194.128906 32.609375 Z M 194.128906 32.609375 " clip-rule="nonzero"/></clipPath></defs><path fill="#0cc0df" d="M 73.621094 49.824219 L 120.410156 92.695312 L 111.382812 121.761719 L 79.683594 130.039062 L 32.894531 87.132812 L 11.738281 106.535156 L 65.496094 177.578125 L 128.894531 166.519531 L 351.394531 383.757812 C 385.472656 415.238281 431.433594 368.03125 399.554688 341.148438 L 161.816406 134.96875 L 176.296875 76.175781 L 96.363281 28.933594 Z M 366.265625 354.292969 C 372.332031 348.730469 382.152344 348.730469 388.21875 354.292969 C 394.28125 359.855469 394.28125 368.859375 388.21875 374.421875 C 382.152344 379.949219 372.332031 379.949219 366.265625 374.421875 C 360.203125 368.859375 360.203125 359.855469 366.265625 354.292969 Z M 366.265625 354.292969 " fill-opacity="1" fill-rule="nonzero"/><path fill="#0cc0df" d="M 73.621094 49.824219 L 120.410156 92.695312 L 111.382812 121.761719 L 79.683594 130.039062 L 32.894531 87.132812 L 11.738281 106.535156 L 65.496094 177.578125 L 128.894531 166.519531 L 351.394531 383.757812 C 385.472656 415.238281 431.433594 368.03125 399.554688 341.148438 L 161.816406 134.96875 L 176.296875 76.175781 L 96.363281 28.933594 Z M 366.265625 354.292969 C 372.332031 348.730469 382.152344 348.730469 388.21875 354.292969 C 394.28125 359.855469 394.28125 368.859375 388.21875 374.421875 C 382.152344 379.949219 372.332031 379.949219 366.265625 374.421875 C 360.203125 368.859375 360.203125 359.855469 366.265625 354.292969 Z M 366.265625 354.292969 " fill-opacity="1" fill-rule="nonzero"/><path fill="#0cc0df" d="M 73.621094 49.824219 L 120.410156 92.695312 L 111.382812 121.761719 L 79.683594 130.039062 L 32.894531 87.132812 L 11.738281 106.535156 L 65.496094 177.578125 L 128.894531 166.519531 L 351.394531 383.757812 C 385.472656 415.238281 431.433594 368.03125 399.554688 341.148438 L 161.816406 134.96875 L 176.296875 76.175781 L 96.363281 28.933594 Z M 366.265625 354.292969 C 372.332031 348.730469 382.152344 348.730469 388.21875 354.292969 C 394.28125 359.855469 394.28125 368.859375 388.21875 374.421875 C 382.152344 379.949219 372.332031 379.949219 366.265625 374.421875 C 360.203125 368.859375 360.203125 359.855469 366.265625 354.292969 Z M 366.265625 354.292969 " fill-opacity="1" fill-rule="nonzero"/><g clip-path="url(#0e3424e2df)"><g clip-path="url(#2a177afc3b)"><path fill="#0cc0df" d="M 73.621094 49.824219 L 120.410156 92.695312 L 111.382812 121.761719 L 79.683594 130.039062 L 32.894531 87.132812 L 11.738281 106.535156 L 65.496094 177.578125 L 128.894531 166.519531 L 351.394531 383.757812 C 385.472656 415.238281 431.433594 368.03125 399.554688 341.148438 L 161.816406 134.96875 L 176.296875 76.175781 L 96.363281 28.933594 Z M 366.265625 354.292969 C 372.332031 348.730469 382.152344 348.730469 388.21875 354.292969 C 394.28125 359.855469 394.28125 368.859375 388.21875 374.421875 C 382.152344 379.949219 372.332031 379.949219 366.265625 374.421875 C 360.203125 368.859375 360.203125 359.855469 366.265625 354.292969 Z M 366.265625 354.292969 " fill-opacity="1" fill-rule="nonzero"/></g></g><path fill="#0cc0df" d="M 80.519531 43.863281 L 129.074219 88.160156 L 117.054688 126.859375 L 77.523438 137.6875 L 28.539062 92.199219 L 11.453125 107.230469 L 62.71875 173.242188 L 130.953125 159.535156 L 356.59375 379.230469 C 383.667969 406.710938 429.519531 370.390625 396.808594 340.828125 L 155.285156 131.933594 L 169.222656 75.089844 L 97.164062 28.640625 L 80.519531 43.871094 Z M 369.226562 352.738281 C 375.253906 347.210938 385.941406 346.117188 391.96875 351.746094 C 398.105469 357.273438 403.015625 367.074219 394.316406 377.699219 C 387.097656 384.320312 375.542969 384.058594 368.324219 376.90625 C 362.257812 371.34375 363.089844 358.367188 369.226562 352.738281 Z M 369.226562 352.738281 " fill-opacity="1" fill-rule="nonzero"/><path fill="#0cc0df" d="M 80.039062 43.9375 L 164.769531 122.230469 L 176.394531 76.3125 L 96.609375 28.640625 Z M 80.039062 43.9375 " fill-opacity="1" fill-rule="nonzero"/><path fill="#0cc0df" d="M 248.0625 209.792969 L 264.78125 223.960938 C 266.152344 238.261719 262.144531 242.566406 236.515625 262.496094 L 205.464844 231.972656 L 248.03125 209.792969 Z M 248.0625 209.792969 " fill-opacity="1" fill-rule="nonzero"/><path fill="#0cc0df" d="M 194.128906 32.609375 L 196.875 33.140625 C 228.789062 23.40625 300.417969 61.742188 284.457031 95.90625 C 280.414062 101.269531 281.101562 110.804688 285.976562 116.796875 L 196.40625 198.964844 C 191.386719 194.359375 180.230469 194.460938 175.105469 198.964844 L 26.976562 329.332031 C 13.472656 341.214844 24.085938 351.3125 29.792969 356.644531 L 56.363281 381.007812 C 62.175781 386.304688 77.519531 393.457031 88.421875 382.863281 L 228.210938 247.761719 C 233.085938 243.058594 233.121094 232.960938 228.210938 228.328125 C 228.210938 228.328125 228.246094 228.261719 228.210938 228.261719 L 318.140625 145.828125 C 327.636719 153.675781 336.605469 154.351562 345.109375 152.21875 C 361.539062 148.09375 370.699219 162.832031 380.527344 173.605469 L 376.085938 177.609375 C 369.515625 183.703125 370.128906 193.964844 377.496094 200.71875 C 384.859375 207.472656 396.085938 208.035156 402.660156 202.007812 L 432.046875 175.09375 C 438.617188 169.003906 438.003906 158.738281 430.601562 152.019531 C 423.960938 145.894531 414.320312 145.101562 407.605469 149.46875 C 387.460938 128.746094 398.039062 125.636719 371.464844 98.652344 L 321.679688 52.007812 C 285.832031 19.765625 239.257812 19.796875 194.128906 32.609375 Z M 194.128906 32.609375 " fill-opacity="1" fill-rule="nonzero"/><path fill="#0cc0df" d="M 194.128906 32.609375 L 196.875 33.140625 C 228.789062 23.40625 300.417969 61.742188 284.457031 95.90625 C 280.414062 101.269531 281.101562 110.804688 285.976562 116.796875 L 196.40625 198.964844 C 191.386719 194.359375 180.230469 194.460938 175.105469 198.964844 L 26.976562 329.332031 C 13.472656 341.214844 24.085938 351.3125 29.792969 356.644531 L 56.363281 381.007812 C 62.175781 386.304688 77.519531 393.457031 88.421875 382.863281 L 228.210938 247.761719 C 233.085938 243.058594 233.121094 232.960938 228.210938 228.328125 C 228.210938 228.328125 228.246094 228.261719 228.210938 228.261719 L 318.140625 145.828125 C 327.636719 153.675781 336.605469 154.351562 345.109375 152.21875 C 361.539062 148.09375 370.699219 162.832031 380.527344 173.605469 L 376.085938 177.609375 C 369.515625 183.703125 370.128906 193.964844 377.496094 200.71875 C 384.859375 207.472656 396.085938 208.035156 402.660156 202.007812 L 432.046875 175.09375 C 438.617188 169.003906 438.003906 158.738281 430.601562 152.019531 C 423.960938 145.894531 414.320312 145.101562 407.605469 149.46875 C 387.460938 128.746094 398.039062 125.636719 371.464844 98.652344 L 321.679688 52.007812 C 285.832031 19.765625 239.257812 19.796875 194.128906 32.609375 Z M 194.128906 32.609375 " fill-opacity="1" fill-rule="nonzero"/><path fill="#0cc0df" d="M 292.039062 111.230469 L 185.71875 208.726562 L 217.597656 237.957031 L 323.917969 140.496094 Z M 292.039062 111.230469 " fill-opacity="1" fill-rule="nonzero"/><path fill="#0cc0df" d="M 313.738281 131.132812 L 207.417969 228.597656 L 217.597656 237.964844 L 323.917969 140.503906 Z M 313.738281 131.132812 " fill-opacity="1" fill-rule="nonzero"/><path fill="#0cc0df" d="M 304.820312 115.5 L 198.929688 212.597656 L 212.613281 225.144531 L 315.792969 125.5625 Z M 304.820312 115.5 " fill-opacity="1" fill-rule="nonzero"/><path fill="#0cc0df" d="M 194.132812 32.617188 L 196.875 33.144531 C 228.792969 23.414062 300.417969 61.75 284.460938 95.914062 C 280.417969 101.277344 281.101562 110.8125 285.976562 116.804688 L 318.144531 145.835938 C 327.636719 153.683594 336.589844 154.34375 345.109375 152.226562 C 361.539062 148.15625 370.671875 162.820312 380.527344 173.613281 L 376.085938 177.621094 C 369.515625 183.710938 370.128906 193.972656 377.496094 200.726562 C 384.859375 207.480469 396.085938 208.042969 402.660156 202.019531 L 432.042969 175.101562 C 438.617188 169.011719 438 158.75 430.601562 152.027344 C 423.957031 145.90625 414.320312 145.109375 407.605469 149.480469 C 387.457031 128.757812 398.035156 125.644531 371.464844 98.664062 L 321.679688 52.015625 C 285.832031 19.769531 239.261719 19.804688 194.132812 32.617188 Z M 194.132812 32.617188 " fill-opacity="1" fill-rule="nonzero"/><path fill="#0cc0df" d="M 407.59375 149.464844 C 387.445312 128.742188 398.023438 125.628906 371.453125 98.648438 L 321.667969 52 C 301.128906 33.527344 277.046875 25.648438 251.773438 24.65625 L 400.257812 162.144531 L 411 153.105469 L 407.589844 149.464844 Z M 407.59375 149.464844 " fill-opacity="1" fill-rule="nonzero"/><path fill="#0cc0df" d="M 286.734375 85.582031 C 286.914062 88.894531 286.085938 92.203125 284.390625 95.914062 C 280.417969 101.277344 281.101562 110.808594 285.976562 116.800781 L 318.144531 145.835938 C 327.640625 153.683594 336.589844 154.34375 345.113281 152.226562 C 349.011719 151.132812 352.546875 151.332031 355.871094 152.226562 C 365.976562 154.773438 286.699219 84.195312 286.734375 85.253906 L 286.734375 85.585938 Z M 286.734375 85.582031 " fill-opacity="1" fill-rule="nonzero"/><path fill="#0cc0df" d="M 196.40625 198.964844 C 191.386719 194.363281 180.230469 194.460938 175.105469 198.964844 L 26.984375 329.335938 C 13.484375 341.21875 24.023438 351.316406 29.800781 356.648438 L 56.371094 381.011719 C 62.183594 386.308594 77.527344 393.460938 88.429688 382.867188 L 228.21875 247.761719 C 233.09375 243.0625 233.128906 232.964844 228.21875 228.328125 C 228.21875 228.328125 228.253906 228.261719 228.21875 228.261719 L 196.414062 198.964844 Z M 196.40625 198.964844 " fill-opacity="1" fill-rule="nonzero"/><path fill="#0cc0df" d="M 29.753906 356.613281 L 56.324219 381.011719 C 62.136719 386.308594 77.011719 393.890625 87.914062 383.363281 L 228.242188 247.730469 C 233.117188 242.996094 233.261719 232.832031 228.242188 228.265625 L 196.367188 199 L 29.753906 356.621094 Z M 29.753906 356.613281 " fill-opacity="1" fill-rule="nonzero"/><path fill="#0cc0df" d="M 177.519531 210.390625 L 37.15625 336.320312 C 31.308594 341.488281 33.292969 348.738281 37.515625 352.511719 L 52.425781 365.652344 L 205.382812 221.3125 L 191.234375 209.132812 C 188.199219 206.484375 181.125 207.242188 177.515625 210.390625 Z M 177.519531 210.390625 " fill-opacity="1" fill-rule="nonzero"/><g clip-path="url(#d1882dcf49)"><g clip-path="url(#de98d06bfd)"><path fill="#0cc0df" d="M 194.128906 32.609375 L 196.875 33.140625 C 228.789062 23.40625 300.417969 61.742188 284.457031 95.90625 C 280.414062 101.269531 281.101562 110.804688 285.976562 116.796875 L 196.40625 198.964844 C 191.386719 194.359375 180.230469 194.460938 175.105469 198.964844 L 26.976562 329.332031 C 13.472656 341.214844 24.085938 351.3125 29.792969 356.644531 L 56.363281 381.007812 C 62.175781 386.304688 77.519531 393.457031 88.421875 382.863281 L 228.210938 247.761719 C 233.085938 243.058594 233.121094 232.960938 228.210938 228.328125 C 228.210938 228.328125 228.246094 228.261719 228.210938 228.261719 L 318.140625 145.828125 C 327.636719 153.675781 336.605469 154.351562 345.109375 152.21875 C 361.539062 148.09375 370.699219 162.832031 380.527344 173.605469 L 376.085938 177.609375 C 369.515625 183.703125 370.128906 193.964844 377.496094 200.71875 C 384.859375 207.472656 396.085938 208.035156 402.660156 202.007812 L 432.046875 175.09375 C 438.617188 169.003906 438.003906 158.738281 430.601562 152.019531 C 423.960938 145.894531 414.320312 145.101562 407.605469 149.46875 C 387.460938 128.746094 398.039062 125.636719 371.464844 98.652344 L 321.679688 52.007812 C 285.832031 19.765625 239.257812 19.796875 194.128906 32.609375 Z M 194.128906 32.609375 " fill-opacity="1" fill-rule="nonzero"/></g></g><path fill="#0cc0df" d="M 427.527344 155.964844 C 432.976562 160.730469 434.023438 167.351562 426.515625 173.710938 L 412.542969 185.726562 C 405.035156 192.183594 385.394531 174.96875 392.867188 168.546875 L 406.875 156.527344 C 414.347656 150.070312 422.074219 151.199219 427.527344 155.964844 Z M 427.527344 155.964844 " fill-opacity="1" fill-rule="nonzero"/></svg>