<svg xmlns="http://www.w3.org/2000/svg" xmlns:xlink="http://www.w3.org/1999/xlink" width="600" zoomAndPan="magnify" viewBox="0 0 450 449.999984" height="600" preserveAspectRatio="xMidYMid meet" version="1.0"><defs><clipPath id="7b7b2d8ee2"><path d="M 7.917969 70.054688 L 442.125 70.054688 L 442.125 374 L 7.917969 374 Z M 7.917969 70.054688 " clip-rule="nonzero"/></clipPath><clipPath id="86ba121517"><path d="M 51 294 L 115 294 L 115 386.894531 L 51 386.894531 Z M 51 294 " clip-rule="nonzero"/></clipPath><clipPath id="25e6b6cce3"><path d="M 146.238281 238 L 210 238 L 210 386.894531 L 146.238281 386.894531 Z M 146.238281 238 " clip-rule="nonzero"/></clipPath><clipPath id="10c845772a"><path d="M 241.667969 227.675781 L 306 227.675781 L 306 386.894531 L 241.667969 386.894531 Z M 241.667969 227.675781 " clip-rule="nonzero"/></clipPath><clipPath id="454dc66119"><path d="M 337 144.042969 L 401 144.042969 L 401 386.894531 L 337 386.894531 Z M 337 144.042969 " clip-rule="nonzero"/></clipPath></defs><g clip-path="url(#7b7b2d8ee2)"><path fill="#0cc0df" d="M 442.128906 70.050781 L 363.050781 85.277344 L 391.828125 97.929688 L 264.359375 220.972656 L 172.628906 204.761719 L 169.675781 204.238281 L 167.78125 206.226562 L 7.917969 373.683594 L 173.203125 215.890625 L 265.355469 236.625 L 268.972656 237.441406 L 272.023438 234.757812 L 407.328125 115.757812 L 415.777344 146.148438 L 442.128906 70.050781 " fill-opacity="1" fill-rule="nonzero"/></g><g clip-path="url(#86ba121517)"><path fill="#0cc0df" d="M 51.167969 354.738281 L 51.167969 386.894531 L 114.691406 386.894531 L 114.691406 294.097656 L 51.167969 354.738281 " fill-opacity="1" fill-rule="nonzero"/></g><g clip-path="url(#25e6b6cce3)"><path fill="#0cc0df" d="M 173.203125 238.242188 L 146.449219 263.78125 L 146.449219 386.894531 L 209.96875 386.894531 L 209.96875 246.511719 L 173.203125 238.242188 " fill-opacity="1" fill-rule="nonzero"/></g><g clip-path="url(#10c845772a)"><path fill="#0cc0df" d="M 272.023438 257.105469 L 268.972656 259.785156 L 265.355469 258.972656 L 241.726562 253.660156 L 241.726562 386.894531 L 305.25 386.894531 L 305.25 227.882812 L 272.023438 257.105469 " fill-opacity="1" fill-rule="nonzero"/></g><g clip-path="url(#454dc66119)"><path fill="#0cc0df" d="M 337.007812 199.953125 L 337.007812 386.894531 L 400.53125 386.894531 L 400.53125 144.085938 L 337.007812 199.953125 " fill-opacity="1" fill-rule="nonzero"/></g></svg>